<svg width="217" height="217" viewBox="0 0 217 217" fill="none" xmlns="http://www.w3.org/2000/svg">
<path fill-rule="evenodd" clip-rule="evenodd" d="M138.808 196.5C141.779 162.953 141.682 130.052 138.808 96.5H95.5019C92.2668 130.065 92.1861 162.912 95.1609 196.5H138.808Z" fill="#165D6C"/>
<path fill-rule="evenodd" clip-rule="evenodd" d="M21 20.5H213C215.209 20.5 217 22.2909 217 24.5V70.5C217 72.7091 215.209 74.5 213 74.5H21C18.7909 74.5 17 72.7091 17 70.5V24.5C17 22.2909 18.7909 20.5 21 20.5ZM87 22.5L67 72.5H87L107 22.5H87ZM97 72.5L117 22.5H137L117 72.5H97ZM167 22.5H147L127 72.5H147L167 22.5Z" fill="#165D6C"/>
<path d="M1.35487 46.5446C1.67868 44.1833 3.71561 42.5 6.09902 42.5H15V52.5H12.7082C12.2425 52.5 11.6995 52.466 11.4415 52.8538C10.8498 53.7431 10 56.7223 10 66.5C10 76.2777 10.8498 79.257 11.4415 80.1462C11.6995 80.534 12.2425 80.5 12.7082 80.5H112C117.523 80.5 122 84.9772 122 90.5H6.09902C3.71561 90.5 1.67869 88.8167 1.35487 86.4554C0.770368 82.193 0 75.8095 0 66.5C0 57.1905 0.770368 50.807 1.35487 46.5446Z" fill="#165D6C"/>
</svg>
