<svg width="217" height="176" viewBox="0 0 217 176" fill="none" xmlns="http://www.w3.org/2000/svg">
<path fill-rule="evenodd" clip-rule="evenodd" d="M138.808 176C141.779 142.453 141.682 109.552 138.808 76H95.5019C92.2668 109.565 92.1861 142.412 95.1609 176H138.808Z" fill="#165D6C"/>
<path fill-rule="evenodd" clip-rule="evenodd" d="M21 0H213C215.209 0 217 1.79086 217 4V50C217 52.2091 215.209 54 213 54H21C18.7909 54 17 52.2091 17 50V4C17 1.79086 18.7909 0 21 0ZM87 2L67 52H87L107 2H87ZM97 52L117 2H137L117 52H97ZM167 2H147L127 52H147L167 2Z" fill="#165D6C"/>
<path d="M1.35487 26.0446C1.67868 23.6833 3.71561 22 6.09902 22H15V32H12.7082C12.2425 32 11.6995 31.966 11.4415 32.3538C10.8498 33.2431 10 36.2223 10 46C10 55.7777 10.8498 58.757 11.4415 59.6462C11.6995 60.034 12.2425 60 12.7082 60H112C117.523 60 122 64.4772 122 70H6.09902C3.71561 70 1.67869 68.3167 1.35487 65.9554C0.770368 61.693 0 55.3095 0 46C0 36.6905 0.770368 30.307 1.35487 26.0446Z" fill="#165D6C"/>
</svg>
