<svg width="256" height="256" viewBox="0 0 256 256" fill="none" xmlns="http://www.w3.org/2000/svg">
<path fill-rule="evenodd" clip-rule="evenodd" d="M127.5 1C160.338 1 190.133 14.0273 212 35.1958H206.141C185.317 16.4256 157.743 5 127.5 5C97.2573 5 69.6831 16.4256 48.8587 35.1958H43C64.8665 14.0273 94.6619 1 127.5 1ZM6 122.5C6 182.195 49.0506 231.836 105.799 242.067V238C51.2724 227.819 10 179.979 10 122.5H6Z" fill="#565656"/>
<path fill-rule="evenodd" clip-rule="evenodd" d="M96 43H28V103H76L96 43ZM98 103H108L128 43H118L98 103ZM140 103H130L150 43H160L140 103ZM162 103H228V43H182L162 103Z" fill="#565656"/>
<path d="M113 145H143V253C143 253 136 255 128 255C120 255 113 253 113 253V145Z" fill="#565656"/>
<path d="M10 70H24V80H20V102V108L133.5 134.5V141.5H123.5L10 115V102V80V70Z" fill="#565656"/>
</svg>
