<svg width="805" height="254" viewBox="0 0 805 254" fill="none" xmlns="http://www.w3.org/2000/svg">
<path d="M183.542 230.146L177.596 242.799H174L181.492 228.201H183.789L183.542 230.146ZM188.519 242.799L182.558 230.146L182.298 228.201H184.609L192.128 242.799H188.519ZM188.232 237.385V239.38H177.404V237.385H188.232Z" fill="#565656"/>
<path d="M205.28 228.201H208.697V237.957C208.697 239.066 208.369 239.995 207.713 240.744C207.057 241.493 206.164 242.057 205.034 242.439C203.912 242.813 202.659 243 201.274 243C199.843 243 198.567 242.813 197.446 242.439C196.325 242.057 195.441 241.493 194.794 240.744C194.156 239.995 193.837 239.066 193.837 237.957V228.201H197.255V237.957C197.255 238.658 197.419 239.237 197.747 239.691C198.075 240.139 198.54 240.47 199.141 240.684C199.743 240.898 200.454 241.005 201.274 241.005C202.094 241.005 202.801 240.898 203.393 240.684C203.995 240.47 204.459 240.139 204.787 239.691C205.116 239.237 205.28 238.658 205.28 237.957V228.201Z" fill="#565656"/>
<path d="M220.619 228.201V242.799H217.215V228.201H220.619ZM226.866 228.201V230.206H211.021V228.201H226.866Z" fill="#565656"/>
<path d="M244.981 235.099V235.901C244.981 237.004 244.785 237.993 244.393 238.869C244.001 239.745 243.44 240.49 242.711 241.105C241.991 241.72 241.125 242.191 240.114 242.519C239.102 242.84 237.981 243 236.751 243C235.529 243 234.413 242.84 233.401 242.519C232.399 242.191 231.528 241.72 230.79 241.105C230.052 240.49 229.478 239.745 229.067 238.869C228.666 237.993 228.466 237.004 228.466 235.901V235.099C228.466 233.996 228.666 233.01 229.067 232.141C229.468 231.265 230.033 230.52 230.763 229.905C231.501 229.283 232.371 228.812 233.374 228.491C234.385 228.164 235.502 228 236.723 228C237.954 228 239.075 228.164 240.086 228.491C241.098 228.812 241.968 229.283 242.698 229.905C243.427 230.52 243.987 231.265 244.379 232.141C244.78 233.01 244.981 233.996 244.981 235.099ZM241.549 235.901V235.079C241.549 234.263 241.44 233.545 241.221 232.923C241.011 232.295 240.697 231.77 240.278 231.349C239.868 230.921 239.362 230.6 238.76 230.386C238.159 230.166 237.48 230.055 236.723 230.055C235.967 230.055 235.292 230.166 234.7 230.386C234.107 230.6 233.602 230.921 233.182 231.349C232.772 231.77 232.458 232.295 232.239 232.923C232.02 233.545 231.911 234.263 231.911 235.079V235.901C231.911 236.717 232.02 237.439 232.239 238.067C232.458 238.695 232.777 239.227 233.196 239.661C233.624 240.089 234.135 240.413 234.727 240.634C235.32 240.848 235.994 240.955 236.751 240.955C237.516 240.955 238.195 240.848 238.788 240.634C239.38 240.413 239.881 240.089 240.291 239.661C240.702 239.227 241.011 238.695 241.221 238.067C241.44 237.439 241.549 236.717 241.549 235.901Z" fill="#565656"/>
<path d="M249.807 228.201H252.869L258.624 239.461L264.366 228.201H267.429L259.827 242.799H257.394L249.807 228.201ZM248.412 228.201H251.324L251.83 237.947V242.799H248.412V228.201ZM265.911 228.201H268.837V242.799H265.405V237.947L265.911 228.201Z" fill="#565656"/>
<path d="M280.908 230.146L274.961 242.799H271.366L278.858 228.201H281.154L280.908 230.146ZM285.885 242.799L279.924 230.146L279.664 228.201H281.975L289.494 242.799H285.885ZM285.598 237.385V239.38H274.77V237.385H285.598Z" fill="#565656"/>
<path d="M298.189 228.201V242.799H294.785V228.201H298.189ZM304.436 228.201V230.206H288.592V228.201H304.436Z" fill="#565656"/>
<path d="M320.09 240.804V242.799H309.522V240.804H320.09ZM310.493 228.201V242.799H307.061V228.201H310.493ZM318.709 234.297V236.262H309.522V234.297H318.709ZM320.022 228.201V230.206H309.522V228.201H320.022Z" fill="#565656"/>
<path d="M328.675 242.799H324.424L324.451 240.804H328.675C329.906 240.804 330.936 240.607 331.765 240.213C332.604 239.818 333.232 239.253 333.652 238.518C334.08 237.783 334.294 236.907 334.294 235.891V235.099C334.294 234.31 334.171 233.612 333.925 233.003C333.688 232.395 333.333 231.884 332.859 231.469C332.394 231.055 331.82 230.741 331.136 230.527C330.462 230.313 329.683 230.206 328.798 230.206H324.342V228.201H328.798C330.12 228.201 331.328 228.364 332.421 228.692C333.515 229.013 334.458 229.477 335.251 230.086C336.053 230.694 336.668 231.422 337.097 232.271C337.525 233.12 337.739 234.07 337.739 235.119V235.891C337.739 236.941 337.525 237.89 337.097 238.739C336.668 239.588 336.053 240.316 335.251 240.924C334.449 241.526 333.492 241.991 332.38 242.318C331.277 242.639 330.043 242.799 328.675 242.799ZM326.324 228.201V242.799H322.893V228.201H326.324Z" fill="#565656"/>
<path d="M353.94 242.799H349.688L349.715 240.804H353.94C355.17 240.804 356.2 240.607 357.029 240.213C357.868 239.818 358.497 239.253 358.916 238.518C359.344 237.783 359.559 236.907 359.559 235.891V235.099C359.559 234.31 359.435 233.612 359.189 233.003C358.952 232.395 358.597 231.884 358.123 231.469C357.658 231.055 357.084 230.741 356.401 230.527C355.726 230.313 354.947 230.206 354.063 230.206H349.606V228.201H354.063C355.384 228.201 356.592 228.364 357.686 228.692C358.779 229.013 359.723 229.477 360.516 230.086C361.318 230.694 361.933 231.422 362.361 232.271C362.789 233.12 363.004 234.07 363.004 235.119V235.891C363.004 236.941 362.789 237.89 362.361 238.739C361.933 239.588 361.318 240.316 360.516 240.924C359.713 241.526 358.756 241.991 357.645 242.318C356.542 242.639 355.307 242.799 353.94 242.799ZM351.588 228.201V242.799H348.157V228.201H351.588Z" fill="#565656"/>
<path d="M382.321 235.099V235.901C382.321 237.004 382.125 237.993 381.733 238.869C381.341 239.745 380.781 240.49 380.052 241.105C379.332 241.72 378.466 242.191 377.454 242.519C376.442 242.84 375.321 243 374.091 243C372.87 243 371.753 242.84 370.742 242.519C369.739 242.191 368.869 241.72 368.13 241.105C367.392 240.49 366.818 239.745 366.408 238.869C366.007 237.993 365.806 237.004 365.806 235.901V235.099C365.806 233.996 366.007 233.01 366.408 232.141C366.809 231.265 367.374 230.52 368.103 229.905C368.841 229.283 369.712 228.812 370.714 228.491C371.726 228.164 372.842 228 374.064 228C375.294 228 376.415 228.164 377.427 228.491C378.438 228.812 379.309 229.283 380.038 229.905C380.767 230.52 381.328 231.265 381.719 232.141C382.12 233.01 382.321 233.996 382.321 235.099ZM378.89 235.901V235.079C378.89 234.263 378.78 233.545 378.561 232.923C378.352 232.295 378.037 231.77 377.618 231.349C377.208 230.921 376.702 230.6 376.101 230.386C375.499 230.166 374.82 230.055 374.064 230.055C373.307 230.055 372.633 230.166 372.04 230.386C371.448 230.6 370.942 230.921 370.523 231.349C370.113 231.77 369.798 232.295 369.579 232.923C369.361 233.545 369.251 234.263 369.251 235.079V235.901C369.251 236.717 369.361 237.439 369.579 238.067C369.798 238.695 370.117 239.227 370.536 239.661C370.965 240.089 371.475 240.413 372.068 240.634C372.66 240.848 373.335 240.955 374.091 240.955C374.857 240.955 375.536 240.848 376.128 240.634C376.72 240.413 377.222 240.089 377.632 239.661C378.042 239.227 378.352 238.695 378.561 238.067C378.78 237.439 378.89 236.717 378.89 235.901Z" fill="#565656"/>
<path d="M397.51 238.047H400.927C400.818 239.003 400.454 239.855 399.834 240.604C399.214 241.346 398.344 241.93 397.223 242.358C396.102 242.786 394.739 243 393.135 243C391.904 243 390.797 242.84 389.813 242.519C388.828 242.191 387.985 241.73 387.284 241.135C386.582 240.533 386.044 239.808 385.67 238.959C385.306 238.11 385.124 237.161 385.124 236.112V234.898C385.124 233.849 385.31 232.9 385.684 232.051C386.067 231.202 386.614 230.477 387.325 229.875C388.036 229.267 388.888 228.802 389.881 228.481C390.884 228.16 392.009 228 393.258 228C394.844 228 396.184 228.214 397.277 228.642C398.371 229.07 399.219 229.661 399.82 230.416C400.431 231.172 400.804 232.037 400.941 233.013H397.523C397.432 232.385 397.232 231.847 396.922 231.399C396.621 230.951 396.174 230.61 395.582 230.376C394.99 230.136 394.215 230.015 393.258 230.015C392.474 230.015 391.791 230.122 391.207 230.336C390.624 230.55 390.136 230.864 389.744 231.279C389.353 231.693 389.056 232.205 388.856 232.813C388.664 233.414 388.569 234.103 388.569 234.878V236.112C388.569 236.847 388.655 237.515 388.828 238.117C389.011 238.712 389.284 239.223 389.649 239.651C390.022 240.079 390.496 240.41 391.071 240.644C391.645 240.878 392.333 240.995 393.135 240.995C394.11 240.995 394.898 240.881 395.5 240.654C396.111 240.426 396.571 240.096 396.881 239.661C397.2 239.22 397.409 238.682 397.51 238.047Z" fill="#565656"/>
<path d="M415.214 228.201H418.632V237.957C418.632 239.066 418.303 239.995 417.647 240.744C416.991 241.493 416.098 242.057 414.968 242.439C413.847 242.813 412.593 243 411.208 243C409.777 243 408.501 242.813 407.38 242.439C406.259 242.057 405.375 241.493 404.728 240.744C404.09 239.995 403.771 239.066 403.771 237.957V228.201H407.189V237.957C407.189 238.658 407.353 239.237 407.681 239.691C408.009 240.139 408.474 240.47 409.075 240.684C409.677 240.898 410.388 241.005 411.208 241.005C412.028 241.005 412.735 240.898 413.327 240.684C413.929 240.47 414.394 240.139 414.722 239.691C415.05 239.237 415.214 238.658 415.214 237.957V228.201Z" fill="#565656"/>
<path d="M423.758 228.201H426.821L432.576 239.461L438.318 228.201H441.38L433.779 242.799H431.346L423.758 228.201ZM422.364 228.201H425.276L425.782 237.947V242.799H422.364V228.201ZM439.863 228.201H442.789V242.799H439.357V237.947L439.863 228.201Z" fill="#565656"/>
<path d="M459.891 240.804V242.799H449.323V240.804H459.891ZM450.294 228.201V242.799H446.863V228.201H450.294ZM458.51 234.297V236.262H449.323V234.297H458.51ZM459.823 228.201V230.206H449.323V228.201H459.823Z" fill="#565656"/>
<path d="M478.484 228.201V242.799H475.052L466.125 232.342V242.799H462.694V228.201H466.125L475.08 238.678V228.201H478.484Z" fill="#565656"/>
<path d="M490.35 228.201V242.799H486.946V228.201H490.35ZM496.598 228.201V230.206H480.753V228.201H496.598Z" fill="#565656"/>
<path d="M513.099 237.355H507.918V235.36H513.099C514.002 235.36 514.731 235.253 515.287 235.039C515.843 234.825 516.248 234.531 516.503 234.156C516.768 233.775 516.9 233.341 516.9 232.853C516.9 232.392 516.768 231.961 516.503 231.559C516.248 231.152 515.843 230.824 515.287 230.577C514.731 230.33 514.002 230.206 513.099 230.206H508.971V242.799H505.539V228.201H513.099C514.64 228.201 515.947 228.401 517.023 228.802C518.107 229.197 518.932 229.745 519.497 230.447C520.062 231.142 520.345 231.937 520.345 232.833C520.345 233.775 520.062 234.584 519.497 235.259C518.932 235.934 518.107 236.453 517.023 236.814C515.947 237.174 514.64 237.355 513.099 237.355Z" fill="#565656"/>
<path d="M523.421 228.201H530.462C531.975 228.201 533.264 228.368 534.331 228.702C535.397 229.036 536.213 229.531 536.778 230.186C537.352 230.834 537.639 231.636 537.639 232.592C537.639 233.321 537.457 233.963 537.092 234.517C536.728 235.072 536.213 235.54 535.547 235.921C534.882 236.295 534.089 236.586 533.168 236.793L532.129 237.164H525.8L525.772 235.169H530.516C531.337 235.169 532.02 235.062 532.567 234.848C533.114 234.634 533.524 234.344 533.797 233.976C534.08 233.602 534.221 233.18 534.221 232.713C534.221 232.205 534.084 231.763 533.811 231.389C533.547 231.008 533.137 230.717 532.581 230.517C532.025 230.309 531.318 230.206 530.462 230.206H526.852V242.799H523.421V228.201ZM534.782 242.799L530.106 236.242L533.702 236.232L538.446 242.669V242.799H534.782Z" fill="#565656"/>
<path d="M554.085 240.804V242.799H543.518V240.804H554.085ZM544.488 228.201V242.799H541.057V228.201H544.488ZM552.705 234.297V236.262H543.518V234.297H552.705ZM554.017 228.201V230.206H543.518V228.201H554.017Z" fill="#565656"/>
<path d="M564.448 237.355H559.267V235.36H564.448C565.35 235.36 566.08 235.253 566.635 235.039C567.191 234.825 567.597 234.531 567.852 234.156C568.117 233.775 568.249 233.341 568.249 232.853C568.249 232.392 568.117 231.961 567.852 231.559C567.597 231.152 567.191 230.824 566.635 230.577C566.08 230.33 565.35 230.206 564.448 230.206H560.319V242.799H556.888V228.201H564.448C565.988 228.201 567.296 228.401 568.372 228.802C569.456 229.197 570.281 229.745 570.846 230.447C571.411 231.142 571.694 231.937 571.694 232.833C571.694 233.775 571.411 234.584 570.846 235.259C570.281 235.934 569.456 236.453 568.372 236.814C567.296 237.174 565.988 237.355 564.448 237.355Z" fill="#565656"/>
<path d="M580.443 230.146L574.496 242.799H570.901L578.393 228.201H580.689L580.443 230.146ZM585.42 242.799L579.459 230.146L579.199 228.201H581.51L589.029 242.799H585.42ZM585.133 237.385V239.38H574.305V237.385H585.133Z" fill="#565656"/>
<path d="M591.257 228.201H598.298C599.811 228.201 601.1 228.368 602.167 228.702C603.233 229.036 604.049 229.531 604.614 230.186C605.188 230.834 605.475 231.636 605.475 232.592C605.475 233.321 605.293 233.963 604.928 234.517C604.564 235.072 604.049 235.54 603.384 235.921C602.718 236.295 601.925 236.586 601.005 236.793L599.966 237.164H593.636L593.609 235.169H598.353C599.173 235.169 599.856 235.062 600.403 234.848C600.95 234.634 601.36 234.344 601.634 233.976C601.916 233.602 602.057 233.18 602.057 232.713C602.057 232.205 601.921 231.763 601.647 231.389C601.383 231.008 600.973 230.717 600.417 230.517C599.861 230.309 599.155 230.206 598.298 230.206H594.689V242.799H591.257V228.201ZM602.618 242.799L597.942 236.242L601.538 236.232L606.282 242.669V242.799H602.618Z" fill="#565656"/>
<path d="M616.645 230.146L610.698 242.799H607.102L614.594 228.201H616.891L616.645 230.146ZM621.621 242.799L615.66 230.146L615.4 228.201H617.711L625.23 242.799H621.621ZM621.334 237.385V239.38H610.506V237.385H621.334Z" fill="#565656"/>
<path d="M633.925 228.201V242.799H630.521V228.201H633.925ZM640.173 228.201V230.206H624.328V228.201H640.173Z" fill="#565656"/>
<path d="M646.461 228.201V242.799H643.03V228.201H646.461Z" fill="#565656"/>
<path d="M666.599 235.099V235.901C666.599 237.004 666.403 237.993 666.011 238.869C665.619 239.745 665.059 240.49 664.33 241.105C663.61 241.72 662.744 242.191 661.732 242.519C660.72 242.84 659.599 243 658.369 243C657.148 243 656.031 242.84 655.019 242.519C654.017 242.191 653.147 241.72 652.408 241.105C651.67 240.49 651.096 239.745 650.686 238.869C650.285 237.993 650.084 237.004 650.084 235.901V235.099C650.084 233.996 650.285 233.01 650.686 232.141C651.087 231.265 651.652 230.52 652.381 229.905C653.119 229.283 653.99 228.812 654.992 228.491C656.004 228.164 657.12 228 658.342 228C659.572 228 660.693 228.164 661.705 228.491C662.716 228.812 663.587 229.283 664.316 229.905C665.045 230.52 665.605 231.265 665.997 232.141C666.398 233.01 666.599 233.996 666.599 235.099ZM663.167 235.901V235.079C663.167 234.263 663.058 233.545 662.839 232.923C662.63 232.295 662.315 231.77 661.896 231.349C661.486 230.921 660.98 230.6 660.379 230.386C659.777 230.166 659.098 230.055 658.342 230.055C657.585 230.055 656.911 230.166 656.318 230.386C655.726 230.6 655.22 230.921 654.801 231.349C654.391 231.77 654.076 232.295 653.857 232.923C653.639 233.545 653.529 234.263 653.529 235.079V235.901C653.529 236.717 653.639 237.439 653.857 238.067C654.076 238.695 654.395 239.227 654.814 239.661C655.243 240.089 655.753 240.413 656.346 240.634C656.938 240.848 657.612 240.955 658.369 240.955C659.134 240.955 659.813 240.848 660.406 240.634C660.998 240.413 661.5 240.089 661.91 239.661C662.32 239.227 662.63 238.695 662.839 238.067C663.058 237.439 663.167 236.717 663.167 235.901Z" fill="#565656"/>
<path d="M685.821 228.201V242.799H682.389L673.462 232.342V242.799H670.03V228.201H673.462L682.416 238.678V228.201H685.821Z" fill="#565656"/>
<path d="M707.353 239.039C707.353 238.739 707.289 238.471 707.161 238.237C707.043 238.003 706.829 237.789 706.519 237.596C706.209 237.402 705.771 237.215 705.206 237.034C704.65 236.847 703.939 236.656 703.074 236.463C702.126 236.249 701.251 236.011 700.449 235.751C699.656 235.483 698.963 235.176 698.371 234.828C697.778 234.474 697.318 234.07 696.99 233.615C696.662 233.154 696.498 232.622 696.498 232.021C696.498 231.426 696.666 230.884 697.004 230.396C697.35 229.908 697.838 229.487 698.466 229.133C699.104 228.772 699.856 228.495 700.722 228.301C701.588 228.1 702.545 228 703.593 228C705.07 228 706.341 228.201 707.407 228.602C708.483 229.003 709.308 229.541 709.882 230.216C710.465 230.891 710.757 231.636 710.757 232.452H707.353C707.353 231.971 707.211 231.546 706.929 231.178C706.655 230.804 706.236 230.51 705.671 230.296C705.115 230.082 704.409 229.975 703.552 229.975C702.741 229.975 702.066 230.066 701.529 230.246C700.991 230.426 700.59 230.67 700.326 230.978C700.061 231.285 699.929 231.633 699.929 232.021C699.929 232.295 700.016 232.545 700.189 232.773C700.362 232.993 700.626 233.201 700.982 233.394C701.337 233.582 701.784 233.759 702.322 233.926C702.859 234.093 703.493 234.253 704.222 234.407C705.325 234.648 706.286 234.915 707.107 235.209C707.927 235.497 708.61 235.824 709.157 236.192C709.704 236.559 710.114 236.977 710.388 237.445C710.661 237.906 710.798 238.431 710.798 239.019C710.798 239.634 710.629 240.189 710.292 240.684C709.955 241.172 709.472 241.59 708.843 241.937C708.223 242.278 707.476 242.542 706.601 242.729C705.735 242.91 704.769 243 703.702 243C702.745 243 701.802 242.906 700.873 242.719C699.952 242.532 699.113 242.248 698.357 241.867C697.601 241.479 696.999 240.998 696.552 240.423C696.106 239.842 695.883 239.163 695.883 238.388H699.314C699.314 238.862 699.423 239.267 699.642 239.601C699.87 239.935 700.184 240.209 700.585 240.423C700.986 240.63 701.451 240.784 701.98 240.884C702.518 240.985 703.092 241.035 703.702 241.035C704.504 241.035 705.174 240.951 705.712 240.784C706.259 240.617 706.669 240.383 706.942 240.082C707.216 239.781 707.353 239.434 707.353 239.039Z" fill="#565656"/>
<path d="M715.733 228.201L720.354 235.169L724.975 228.201H728.775L722.076 237.425V242.799H718.618V237.425L711.919 228.201H715.733Z" fill="#565656"/>
<path d="M741.202 239.039C741.202 238.739 741.139 238.471 741.011 238.237C740.893 238.003 740.678 237.789 740.368 237.596C740.059 237.402 739.621 237.215 739.056 237.034C738.5 236.847 737.789 236.656 736.923 236.463C735.975 236.249 735.101 236.011 734.298 235.751C733.506 235.483 732.813 235.176 732.22 234.828C731.628 234.474 731.168 234.07 730.84 233.615C730.512 233.154 730.348 232.622 730.348 232.021C730.348 231.426 730.516 230.884 730.853 230.396C731.2 229.908 731.687 229.487 732.316 229.133C732.954 228.772 733.706 228.495 734.572 228.301C735.438 228.1 736.395 228 737.443 228C738.919 228 740.191 228.201 741.257 228.602C742.333 229.003 743.157 229.541 743.732 230.216C744.315 230.891 744.607 231.636 744.607 232.452H741.202C741.202 231.971 741.061 231.546 740.779 231.178C740.505 230.804 740.086 230.51 739.521 230.296C738.965 230.082 738.259 229.975 737.402 229.975C736.591 229.975 735.916 230.066 735.378 230.246C734.841 230.426 734.44 230.67 734.175 230.978C733.911 231.285 733.779 231.633 733.779 232.021C733.779 232.295 733.866 232.545 734.039 232.773C734.212 232.993 734.476 233.201 734.832 233.394C735.187 233.582 735.634 233.759 736.171 233.926C736.709 234.093 737.343 234.253 738.072 234.407C739.175 234.648 740.136 234.915 740.956 235.209C741.777 235.497 742.46 235.824 743.007 236.192C743.554 236.559 743.964 236.977 744.237 237.445C744.511 237.906 744.648 238.431 744.648 239.019C744.648 239.634 744.479 240.189 744.142 240.684C743.804 241.172 743.321 241.59 742.693 241.937C742.073 242.278 741.325 242.542 740.45 242.729C739.585 242.91 738.619 243 737.552 243C736.595 243 735.652 242.906 734.722 242.719C733.802 242.532 732.963 242.248 732.207 241.867C731.45 241.479 730.849 240.998 730.402 240.423C729.956 239.842 729.732 239.163 729.732 238.388H733.164C733.164 238.862 733.273 239.267 733.492 239.601C733.72 239.935 734.034 240.209 734.435 240.423C734.836 240.63 735.301 240.784 735.83 240.884C736.367 240.985 736.942 241.035 737.552 241.035C738.354 241.035 739.024 240.951 739.562 240.784C740.109 240.617 740.519 240.383 740.792 240.082C741.066 239.781 741.202 239.434 741.202 239.039Z" fill="#565656"/>
<path d="M755.872 228.201V242.799H752.467V228.201H755.872ZM762.119 228.201V230.206H746.274V228.201H762.119Z" fill="#565656"/>
<path d="M777.773 240.804V242.799H767.205V240.804H777.773ZM768.176 228.201V242.799H764.744V228.201H768.176ZM776.392 234.297V236.262H767.205V234.297H776.392ZM777.704 228.201V230.206H767.205V228.201H777.704Z" fill="#565656"/>
<path d="M781.97 228.201H785.032L790.788 239.461L796.53 228.201H799.592L791.991 242.799H789.557L781.97 228.201ZM780.575 228.201H783.487L783.993 237.947V242.799H780.575V228.201ZM798.074 228.201H801V242.799H797.569V237.947L798.074 228.201Z" fill="#565656"/>
<path d="M231.562 196.253V205H183.25V196.253H231.562ZM187.688 141V205H172V141H187.688ZM225.25 167.725V176.341H183.25V167.725H225.25ZM231.25 141V149.791H183.25V141H231.25Z" fill="#565656"/>
<path d="M250.75 141H264.75L291.062 190.363L317.312 141H331.312L296.562 205H285.438L250.75 141ZM244.375 141H257.688L260 183.725V205H244.375V141ZM324.375 141H337.75V205H322.062V183.725L324.375 141Z" fill="#565656"/>
<path d="M390.938 181.132H367.25V172.385H390.938C395.062 172.385 398.396 171.916 400.938 170.978C403.479 170.04 405.333 168.751 406.5 167.11C407.708 165.44 408.312 163.535 408.312 161.396C408.312 159.374 407.708 157.484 406.5 155.725C405.333 153.938 403.479 152.502 400.938 151.418C398.396 150.333 395.062 149.791 390.938 149.791H372.062V205H356.375V141H390.938C397.979 141 403.958 141.879 408.875 143.637C413.833 145.366 417.604 147.769 420.188 150.846C422.771 153.894 424.062 157.381 424.062 161.308C424.062 165.44 422.771 168.985 420.188 171.945C417.604 174.905 413.833 177.176 408.875 178.758C403.958 180.341 397.979 181.132 390.938 181.132Z" fill="#565656"/>
<path d="M495.125 196.253V205H449.438V196.253H495.125ZM453.812 141V205H438.125V141H453.812Z" fill="#565656"/>
<path d="M543.938 149.527L516.75 205H500.312L534.562 141H545.062L543.938 149.527ZM566.688 205L539.438 149.527L538.25 141H548.812L583.188 205H566.688ZM565.375 181.264V190.011H515.875V181.264H565.375Z" fill="#565656"/>
<path d="M622.938 141V205H607.375V141H622.938ZM651.5 141V149.791H579.062V141H651.5Z" fill="#565656"/>
<path d="M723.062 196.253V205H674.75V196.253H723.062ZM679.188 141V205H663.5V141H679.188ZM716.75 167.725V176.341H674.75V167.725H716.75ZM722.75 141V149.791H674.75V141H722.75Z" fill="#565656"/>
<path d="M735.875 141H768.062C774.979 141 780.875 141.733 785.75 143.198C790.625 144.663 794.354 146.832 796.938 149.703C799.562 152.546 800.875 156.062 800.875 160.253C800.875 163.447 800.042 166.26 798.375 168.692C796.708 171.125 794.354 173.176 791.312 174.846C788.271 176.487 784.646 177.762 780.438 178.67L775.688 180.297H746.75L746.625 171.549H768.312C772.062 171.549 775.188 171.081 777.688 170.143C780.188 169.205 782.062 167.93 783.312 166.319C784.604 164.678 785.25 162.832 785.25 160.78C785.25 158.553 784.625 156.619 783.375 154.978C782.167 153.308 780.292 152.033 777.75 151.154C775.208 150.245 771.979 149.791 768.062 149.791H751.562V205H735.875V141ZM787.812 205L766.438 176.253L782.875 176.209L804.562 204.429V205H787.812Z" fill="#565656"/>
<path fill-rule="evenodd" clip-rule="evenodd" d="M124.5 0C157.338 0 187.133 13.0273 209 34.1958H203.141C182.317 15.4256 154.743 4 124.5 4C94.2573 4 66.6831 15.4256 45.8587 34.1958H40C61.8665 13.0273 91.6619 0 124.5 0ZM3 121.5C3 181.195 46.0506 230.836 102.799 241.067V237C48.2724 226.819 7 178.979 7 121.5H3Z" fill="#565656"/>
<path fill-rule="evenodd" clip-rule="evenodd" d="M93 42H25V102H73L93 42ZM95 102H105L125 42H115L95 102ZM137 102H127L147 42H157L137 102ZM159 102H225V42H179L159 102Z" fill="#565656"/>
<path d="M110 144H140V252C140 252 133 254 125 254C117 254 110 252 110 252V144Z" fill="#565656"/>
<path d="M7 69H21V79H17V101V107L130.5 133.5V140.5H120.5L7 114V101V79V69Z" fill="#565656"/>
</svg>
